<?xml version="1.0" standalone="no"?>
<!DOCTYPE svg PUBLIC "-//W3C//DTD SVG 20010904//EN"
  "http://www.w3.org/TR/2001/REC-SVG-20010904/DTD/svg10.dtd">
<svg width="22" height="22">
  <circle cx="0" cy="0" r="1" fill="white"/>
  <circle cx="1" cy="0" r="1" fill="white"/>
  <circle cx="2" cy="0" r="1" fill="white"/>
  <circle cx="3" cy="0" r="1" fill="white"/>
  <circle cx="4" cy="0" r="1" fill="white"/>
  <circle cx="5" cy="0" r="1" fill="white"/>
  <circle cx="6" cy="0" r="1" fill="white"/>
  <circle cx="7" cy="0" r="1" fill="white"/>
  <circle cx="8" cy="0" r="1" fill="white"/>
  <circle cx="9" cy="0" r="1" fill="white"/>
  <circle cx="10" cy="0" r="1" fill="white"/>
  <circle cx="11" cy="0" r="1" fill="white"/>
  <circle cx="12" cy="0" r="1" fill="white"/>
  <circle cx="13" cy="0" r="1" fill="white"/>
  <circle cx="14" cy="0" r="1" fill="white"/>
  <circle cx="15" cy="0" r="1" fill="white"/>
  <circle cx="16" cy="0" r="1" fill="white"/>
  <circle cx="17" cy="0" r="1" fill="white"/>
  <circle cx="18" cy="0" r="1" fill="white"/>
  <circle cx="19" cy="0" r="1" fill="white"/>
  <circle cx="20" cy="0" r="1" fill="white"/>
  <circle cx="21" cy="0" r="1" fill="white"/>
  <circle cx="0" cy="1" r="1" fill="white"/>
  <circle cx="1" cy="1" r="1" fill="white"/>
  <circle cx="2" cy="1" r="1" fill="white"/>
  <circle cx="3" cy="1" r="1" fill="white"/>
  <circle cx="4" cy="1" r="1" fill="white"/>
  <circle cx="5" cy="1" r="1" fill="white"/>
  <circle cx="6" cy="1" r="1" fill="white"/>
  <circle cx="7" cy="1" r="1" fill="white"/>
  <circle cx="8" cy="1" r="1" fill="white"/>
  <circle cx="9" cy="1" r="1" fill="white"/>
  <circle cx="10" cy="1" r="1" fill="white"/>
  <circle cx="11" cy="1" r="1" fill="srgba(254,255,254,1)"/>
  <circle cx="12" cy="1" r="1" fill="srgba(250,252,247,1)"/>
  <circle cx="13" cy="1" r="1" fill="srgba(254,254,254,1)"/>
  <circle cx="14" cy="1" r="1" fill="white"/>
  <circle cx="15" cy="1" r="1" fill="white"/>
  <circle cx="16" cy="1" r="1" fill="white"/>
  <circle cx="17" cy="1" r="1" fill="white"/>
  <circle cx="18" cy="1" r="1" fill="white"/>
  <circle cx="19" cy="1" r="1" fill="white"/>
  <circle cx="20" cy="1" r="1" fill="white"/>
  <circle cx="21" cy="1" r="1" fill="white"/>
  <circle cx="0" cy="2" r="1" fill="white"/>
  <circle cx="1" cy="2" r="1" fill="white"/>
  <circle cx="2" cy="2" r="1" fill="white"/>
  <circle cx="3" cy="2" r="1" fill="white"/>
  <circle cx="4" cy="2" r="1" fill="white"/>
  <circle cx="5" cy="2" r="1" fill="white"/>
  <circle cx="6" cy="2" r="1" fill="white"/>
  <circle cx="7" cy="2" r="1" fill="white"/>
  <circle cx="8" cy="2" r="1" fill="white"/>
  <circle cx="9" cy="2" r="1" fill="white"/>
  <circle cx="10" cy="2" r="1" fill="srgba(255,251,251,1)"/>
  <circle cx="11" cy="2" r="1" fill="srgba(255,242,241,1)"/>
  <circle cx="12" cy="2" r="1" fill="srgba(198,208,154,1)"/>
  <circle cx="13" cy="2" r="1" fill="srgba(191,213,150,1)"/>
  <circle cx="14" cy="2" r="1" fill="srgba(236,245,222,1)"/>
  <circle cx="15" cy="2" r="1" fill="srgba(249,251,247,1)"/>
  <circle cx="16" cy="2" r="1" fill="srgba(198,209,191,1)"/>
  <circle cx="17" cy="2" r="1" fill="srgba(232,237,229,1)"/>
  <circle cx="18" cy="2" r="1" fill="white"/>
  <circle cx="19" cy="2" r="1" fill="white"/>
  <circle cx="20" cy="2" r="1" fill="white"/>
  <circle cx="21" cy="2" r="1" fill="white"/>
  <circle cx="0" cy="3" r="1" fill="white"/>
  <circle cx="1" cy="3" r="1" fill="white"/>
  <circle cx="2" cy="3" r="1" fill="white"/>
  <circle cx="3" cy="3" r="1" fill="white"/>
  <circle cx="4" cy="3" r="1" fill="white"/>
  <circle cx="5" cy="3" r="1" fill="white"/>
  <circle cx="6" cy="3" r="1" fill="white"/>
  <circle cx="7" cy="3" r="1" fill="srgba(255,255,255,1)"/>
  <circle cx="8" cy="3" r="1" fill="srgba(255,239,239,1)"/>
  <circle cx="9" cy="3" r="1" fill="srgba(255,180,178,1)"/>
  <circle cx="10" cy="3" r="1" fill="srgba(252,111,107,1)"/>
  <circle cx="11" cy="3" r="1" fill="srgba(253,81,80,1)"/>
  <circle cx="12" cy="3" r="1" fill="srgba(214,94,54,1)"/>
  <circle cx="13" cy="3" r="1" fill="srgba(138,128,30,1)"/>
  <circle cx="14" cy="3" r="1" fill="srgba(135,166,67,1)"/>
  <circle cx="15" cy="3" r="1" fill="srgba(167,199,124,1)"/>
  <circle cx="16" cy="3" r="1" fill="srgba(115,153,87,1)"/>
  <circle cx="17" cy="3" r="1" fill="srgba(206,218,200,1)"/>
  <circle cx="18" cy="3" r="1" fill="white"/>
  <circle cx="19" cy="3" r="1" fill="white"/>
  <circle cx="20" cy="3" r="1" fill="white"/>
  <circle cx="21" cy="3" r="1" fill="white"/>
  <circle cx="0" cy="4" r="1" fill="white"/>
  <circle cx="1" cy="4" r="1" fill="white"/>
  <circle cx="2" cy="4" r="1" fill="white"/>
  <circle cx="3" cy="4" r="1" fill="white"/>
  <circle cx="4" cy="4" r="1" fill="white"/>
  <circle cx="5" cy="4" r="1" fill="white"/>
  <circle cx="6" cy="4" r="1" fill="srgba(255,254,254,1)"/>
  <circle cx="7" cy="4" r="1" fill="srgba(255,200,200,1)"/>
  <circle cx="8" cy="4" r="1" fill="srgba(253,100,95,1)"/>
  <circle cx="9" cy="4" r="1" fill="srgba(251,40,34,1)"/>
  <circle cx="10" cy="4" r="1" fill="srgba(247,19,12,1)"/>
  <circle cx="11" cy="4" r="1" fill="srgba(247,30,20,1)"/>
  <circle cx="12" cy="4" r="1" fill="srgba(241,16,7,1)"/>
  <circle cx="13" cy="4" r="1" fill="srgba(188,57,9,1)"/>
  <circle cx="14" cy="4" r="1" fill="srgba(115,102,16,1)"/>
  <circle cx="15" cy="4" r="1" fill="srgba(96,139,32,1)"/>
  <circle cx="16" cy="4" r="1" fill="srgba(124,170,69,1)"/>
  <circle cx="17" cy="4" r="1" fill="srgba(221,232,210,1)"/>
  <circle cx="18" cy="4" r="1" fill="white"/>
  <circle cx="19" cy="4" r="1" fill="white"/>
  <circle cx="20" cy="4" r="1" fill="white"/>
  <circle cx="21" cy="4" r="1" fill="white"/>
  <circle cx="0" cy="5" r="1" fill="white"/>
  <circle cx="1" cy="5" r="1" fill="white"/>
  <circle cx="2" cy="5" r="1" fill="white"/>
  <circle cx="3" cy="5" r="1" fill="white"/>
  <circle cx="4" cy="5" r="1" fill="white"/>
  <circle cx="5" cy="5" r="1" fill="white"/>
  <circle cx="6" cy="5" r="1" fill="srgba(254,195,191,1)"/>
  <circle cx="7" cy="5" r="1" fill="srgba(252,70,63,1)"/>
  <circle cx="8" cy="5" r="1" fill="srgba(251,48,41,1)"/>
  <circle cx="9" cy="5" r="1" fill="srgba(248,74,63,1)"/>
  <circle cx="10" cy="5" r="1" fill="srgba(252,25,22,1)"/>
  <circle cx="11" cy="5" r="1" fill="srgba(240,26,18,1)"/>
  <circle cx="12" cy="5" r="1" fill="srgba(193,53,17,1)"/>
  <circle cx="13" cy="5" r="1" fill="srgba(127,101,9,1)"/>
  <circle cx="14" cy="5" r="1" fill="srgba(105,138,10,1)"/>
  <circle cx="15" cy="5" r="1" fill="srgba(99,148,16,1)"/>
  <circle cx="16" cy="5" r="1" fill="srgba(121,168,46,1)"/>
  <circle cx="17" cy="5" r="1" fill="srgba(191,215,155,1)"/>
  <circle cx="18" cy="5" r="1" fill="srgba(251,251,249,1)"/>
  <circle cx="19" cy="5" r="1" fill="srgba(251,254,247,1)"/>
  <circle cx="20" cy="5" r="1" fill="srgba(218,240,197,1)"/>
  <circle cx="21" cy="5" r="1" fill="srgba(230,243,214,1)"/>
  <circle cx="0" cy="6" r="1" fill="white"/>
  <circle cx="1" cy="6" r="1" fill="white"/>
  <circle cx="2" cy="6" r="1" fill="white"/>
  <circle cx="3" cy="6" r="1" fill="white"/>
  <circle cx="4" cy="6" r="1" fill="white"/>
  <circle cx="5" cy="6" r="1" fill="srgba(254,201,200,1)"/>
  <circle cx="6" cy="6" r="1" fill="srgba(252,64,60,1)"/>
  <circle cx="7" cy="6" r="1" fill="srgba(248,62,54,1)"/>
  <circle cx="8" cy="6" r="1" fill="srgba(252,90,83,1)"/>
  <circle cx="9" cy="6" r="1" fill="srgba(249,90,82,1)"/>
  <circle cx="10" cy="6" r="1" fill="srgba(248,66,62,1)"/>
  <circle cx="11" cy="6" r="1" fill="srgba(241,78,69,1)"/>
  <circle cx="12" cy="6" r="1" fill="srgba(242,60,55,1)"/>
  <circle cx="13" cy="6" r="1" fill="srgba(200,21,5,1)"/>
  <circle cx="14" cy="6" r="1" fill="srgba(150,59,5,1)"/>
  <circle cx="15" cy="6" r="1" fill="srgba(116,117,9,1)"/>
  <circle cx="16" cy="6" r="1" fill="srgba(109,153,20,1)"/>
  <circle cx="17" cy="6" r="1" fill="srgba(124,169,59,1)"/>
  <circle cx="18" cy="6" r="1" fill="srgba(181,214,145,1)"/>
  <circle cx="19" cy="6" r="1" fill="srgba(163,207,125,1)"/>
  <circle cx="20" cy="6" r="1" fill="srgba(150,192,116,1)"/>
  <circle cx="21" cy="6" r="1" fill="srgba(221,232,209,1)"/>
  <circle cx="0" cy="7" r="1" fill="white"/>
  <circle cx="1" cy="7" r="1" fill="white"/>
  <circle cx="2" cy="7" r="1" fill="white"/>
  <circle cx="3" cy="7" r="1" fill="white"/>
  <circle cx="4" cy="7" r="1" fill="srgba(255,229,229,1)"/>
  <circle cx="5" cy="7" r="1" fill="srgba(250,95,90,1)"/>
  <circle cx="6" cy="7" r="1" fill="srgba(247,57,50,1)"/>
  <circle cx="7" cy="7" r="1" fill="srgba(247,95,87,1)"/>
  <circle cx="8" cy="7" r="1" fill="srgba(247,97,90,1)"/>
  <circle cx="9" cy="7" r="1" fill="srgba(248,102,95,1)"/>
  <circle cx="10" cy="7" r="1" fill="srgba(253,88,85,1)"/>
  <circle cx="11" cy="7" r="1" fill="srgba(251,62,58,1)"/>
  <circle cx="12" cy="7" r="1" fill="srgba(249,33,28,1)"/>
  <circle cx="13" cy="7" r="1" fill="srgba(223,20,12,1)"/>
  <circle cx="14" cy="7" r="1" fill="srgba(209,9,3,1)"/>
  <circle cx="15" cy="7" r="1" fill="srgba(146,68,15,1)"/>
  <circle cx="16" cy="7" r="1" fill="srgba(105,140,31,1)"/>
  <circle cx="17" cy="7" r="1" fill="srgba(99,146,41,1)"/>
  <circle cx="18" cy="7" r="1" fill="srgba(93,144,46,1)"/>
  <circle cx="19" cy="7" r="1" fill="srgba(161,186,139,1)"/>
  <circle cx="20" cy="7" r="1" fill="srgba(236,239,233,1)"/>
  <circle cx="21" cy="7" r="1" fill="srgba(255,255,255,1)"/>
  <circle cx="0" cy="8" r="1" fill="white"/>
  <circle cx="1" cy="8" r="1" fill="white"/>
  <circle cx="2" cy="8" r="1" fill="white"/>
  <circle cx="3" cy="8" r="1" fill="srgba(254,250,250,1)"/>
  <circle cx="4" cy="8" r="1" fill="srgba(250,146,143,1)"/>
  <circle cx="5" cy="8" r="1" fill="srgba(245,65,59,1)"/>
  <circle cx="6" cy="8" r="1" fill="srgba(246,77,74,1)"/>
  <circle cx="7" cy="8" r="1" fill="srgba(247,103,103,1)"/>
  <circle cx="8" cy="8" r="1" fill="srgba(249,97,94,1)"/>
  <circle cx="9" cy="8" r="1" fill="srgba(250,122,119,1)"/>
  <circle cx="10" cy="8" r="1" fill="srgba(242,77,74,1)"/>
  <circle cx="11" cy="8" r="1" fill="srgba(235,67,55,1)"/>
  <circle cx="12" cy="8" r="1" fill="srgba(250,51,48,1)"/>
  <circle cx="13" cy="8" r="1" fill="srgba(231,6,2,1)"/>
  <circle cx="14" cy="8" r="1" fill="srgba(182,62,20,1)"/>
  <circle cx="15" cy="8" r="1" fill="srgba(113,145,47,1)"/>
  <circle cx="16" cy="8" r="1" fill="srgba(95,144,51,1)"/>
  <circle cx="17" cy="8" r="1" fill="srgba(81,123,42,1)"/>
  <circle cx="18" cy="8" r="1" fill="srgba(98,137,47,1)"/>
  <circle cx="19" cy="8" r="1" fill="srgba(212,223,195,1)"/>
  <circle cx="20" cy="8" r="1" fill="white"/>
  <circle cx="21" cy="8" r="1" fill="white"/>
  <circle cx="0" cy="9" r="1" fill="white"/>
  <circle cx="1" cy="9" r="1" fill="white"/>
  <circle cx="2" cy="9" r="1" fill="white"/>
  <circle cx="3" cy="9" r="1" fill="srgba(252,186,185,1)"/>
  <circle cx="4" cy="9" r="1" fill="srgba(246,67,61,1)"/>
  <circle cx="5" cy="9" r="1" fill="srgba(244,91,84,1)"/>
  <circle cx="6" cy="9" r="1" fill="srgba(238,89,83,1)"/>
  <circle cx="7" cy="9" r="1" fill="srgba(243,127,124,1)"/>
  <circle cx="8" cy="9" r="1" fill="srgba(243,127,128,1)"/>
  <circle cx="9" cy="9" r="1" fill="srgba(240,112,109,1)"/>
  <circle cx="10" cy="9" r="1" fill="srgba(248,110,109,1)"/>
  <circle cx="11" cy="9" r="1" fill="srgba(248,64,60,1)"/>
  <circle cx="12" cy="9" r="1" fill="srgba(244,29,26,1)"/>
  <circle cx="13" cy="9" r="1" fill="srgba(192,32,13,1)"/>
  <circle cx="14" cy="9" r="1" fill="srgba(122,124,45,1)"/>
  <circle cx="15" cy="9" r="1" fill="srgba(92,141,55,1)"/>
  <circle cx="16" cy="9" r="1" fill="srgba(81,106,43,1)"/>
  <circle cx="17" cy="9" r="1" fill="srgba(78,98,24,1)"/>
  <circle cx="18" cy="9" r="1" fill="srgba(94,136,29,1)"/>
  <circle cx="19" cy="9" r="1" fill="srgba(195,215,159,1)"/>
  <circle cx="20" cy="9" r="1" fill="white"/>
  <circle cx="21" cy="9" r="1" fill="white"/>
  <circle cx="0" cy="10" r="1" fill="white"/>
  <circle cx="1" cy="10" r="1" fill="white"/>
  <circle cx="2" cy="10" r="1" fill="srgba(253,218,215,1)"/>
  <circle cx="3" cy="10" r="1" fill="srgba(243,90,82,1)"/>
  <circle cx="4" cy="10" r="1" fill="srgba(238,53,47,1)"/>
  <circle cx="5" cy="10" r="1" fill="srgba(239,77,73,1)"/>
  <circle cx="6" cy="10" r="1" fill="srgba(243,83,82,1)"/>
  <circle cx="7" cy="10" r="1" fill="srgba(246,99,100,1)"/>
  <circle cx="8" cy="10" r="1" fill="srgba(245,96,92,1)"/>
  <circle cx="9" cy="10" r="1" fill="srgba(244,109,100,1)"/>
  <circle cx="10" cy="10" r="1" fill="srgba(245,102,102,1)"/>
  <circle cx="11" cy="10" r="1" fill="srgba(234,52,46,1)"/>
  <circle cx="12" cy="10" r="1" fill="srgba(240,32,28,1)"/>
  <circle cx="13" cy="10" r="1" fill="srgba(186,20,8,1)"/>
  <circle cx="14" cy="10" r="1" fill="srgba(131,44,18,1)"/>
  <circle cx="15" cy="10" r="1" fill="srgba(124,39,17,1)"/>
  <circle cx="16" cy="10" r="1" fill="srgba(128,23,9,1)"/>
  <circle cx="17" cy="10" r="1" fill="srgba(103,82,6,1)"/>
  <circle cx="18" cy="10" r="1" fill="srgba(92,142,12,1)"/>
  <circle cx="19" cy="10" r="1" fill="srgba(171,203,107,1)"/>
  <circle cx="20" cy="10" r="1" fill="srgba(251,253,247,1)"/>
  <circle cx="21" cy="10" r="1" fill="white"/>
  <circle cx="0" cy="11" r="1" fill="white"/>
  <circle cx="1" cy="11" r="1" fill="srgba(254,246,245,1)"/>
  <circle cx="2" cy="11" r="1" fill="srgba(247,117,110,1)"/>
  <circle cx="3" cy="11" r="1" fill="srgba(243,38,34,1)"/>
  <circle cx="4" cy="11" r="1" fill="srgba(243,81,76,1)"/>
  <circle cx="5" cy="11" r="1" fill="srgba(243,75,69,1)"/>
  <circle cx="6" cy="11" r="1" fill="srgba(239,46,42,1)"/>
  <circle cx="7" cy="11" r="1" fill="srgba(241,68,63,1)"/>
  <circle cx="8" cy="11" r="1" fill="srgba(240,48,47,1)"/>
  <circle cx="9" cy="11" r="1" fill="srgba(236,56,51,1)"/>
  <circle cx="10" cy="11" r="1" fill="srgba(242,51,47,1)"/>
  <circle cx="11" cy="11" r="1" fill="srgba(239,58,50,1)"/>
  <circle cx="12" cy="11" r="1" fill="srgba(229,41,36,1)"/>
  <circle cx="13" cy="11" r="1" fill="srgba(193,17,9,1)"/>
  <circle cx="14" cy="11" r="1" fill="srgba(174,8,6,1)"/>
  <circle cx="15" cy="11" r="1" fill="srgba(164,2,2,1)"/>
  <circle cx="16" cy="11" r="1" fill="srgba(155,8,2,1)"/>
  <circle cx="17" cy="11" r="1" fill="srgba(107,89,5,1)"/>
  <circle cx="18" cy="11" r="1" fill="srgba(97,145,11,1)"/>
  <circle cx="19" cy="11" r="1" fill="srgba(127,172,34,1)"/>
  <circle cx="20" cy="11" r="1" fill="srgba(219,235,188,1)"/>
  <circle cx="21" cy="11" r="1" fill="white"/>
  <circle cx="0" cy="12" r="1" fill="srgba(255,255,255,1)"/>
  <circle cx="1" cy="12" r="1" fill="srgba(249,194,188,1)"/>
  <circle cx="2" cy="12" r="1" fill="srgba(235,70,59,1)"/>
  <circle cx="3" cy="12" r="1" fill="srgba(221,26,22,1)"/>
  <circle cx="4" cy="12" r="1" fill="srgba(221,36,34,1)"/>
  <circle cx="5" cy="12" r="1" fill="srgba(224,27,25,1)"/>
  <circle cx="6" cy="12" r="1" fill="srgba(236,31,29,1)"/>
  <circle cx="7" cy="12" r="1" fill="srgba(230,32,30,1)"/>
  <circle cx="8" cy="12" r="1" fill="srgba(225,24,21,1)"/>
  <circle cx="9" cy="12" r="1" fill="srgba(229,60,54,1)"/>
  <circle cx="10" cy="12" r="1" fill="srgba(230,35,32,1)"/>
  <circle cx="11" cy="12" r="1" fill="srgba(224,37,29,1)"/>
  <circle cx="12" cy="12" r="1" fill="srgba(204,15,10,1)"/>
  <circle cx="13" cy="12" r="1" fill="srgba(192,24,15,1)"/>
  <circle cx="14" cy="12" r="1" fill="srgba(185,20,16,1)"/>
  <circle cx="15" cy="12" r="1" fill="srgba(174,24,14,1)"/>
  <circle cx="16" cy="12" r="1" fill="srgba(151,12,3,1)"/>
  <circle cx="17" cy="12" r="1" fill="srgba(98,92,5,1)"/>
  <circle cx="18" cy="12" r="1" fill="srgba(120,108,17,1)"/>
  <circle cx="19" cy="12" r="1" fill="srgba(120,141,21,1)"/>
  <circle cx="20" cy="12" r="1" fill="srgba(183,213,130,1)"/>
  <circle cx="21" cy="12" r="1" fill="srgba(254,255,253,1)"/>
  <circle cx="0" cy="13" r="1" fill="srgba(254,251,251,1)"/>
  <circle cx="1" cy="13" r="1" fill="srgba(236,134,123,1)"/>
  <circle cx="2" cy="13" r="1" fill="srgba(228,41,35,1)"/>
  <circle cx="3" cy="13" r="1" fill="srgba(221,33,29,1)"/>
  <circle cx="4" cy="13" r="1" fill="srgba(218,29,25,1)"/>
  <circle cx="5" cy="13" r="1" fill="srgba(224,28,22,1)"/>
  <circle cx="6" cy="13" r="1" fill="srgba(215,23,18,1)"/>
  <circle cx="7" cy="13" r="1" fill="srgba(221,58,46,1)"/>
  <circle cx="8" cy="13" r="1" fill="srgba(218,17,15,1)"/>
  <circle cx="9" cy="13" r="1" fill="srgba(218,30,25,1)"/>
  <circle cx="10" cy="13" r="1" fill="srgba(198,10,7,1)"/>
  <circle cx="11" cy="13" r="1" fill="srgba(204,29,19,1)"/>
  <circle cx="12" cy="13" r="1" fill="srgba(198,16,11,1)"/>
  <circle cx="13" cy="13" r="1" fill="srgba(183,18,12,1)"/>
  <circle cx="14" cy="13" r="1" fill="srgba(181,13,10,1)"/>
  <circle cx="15" cy="13" r="1" fill="srgba(176,13,10,1)"/>
  <circle cx="16" cy="13" r="1" fill="srgba(146,23,7,1)"/>
  <circle cx="17" cy="13" r="1" fill="srgba(134,67,12,1)"/>
  <circle cx="18" cy="13" r="1" fill="srgba(205,98,76,1)"/>
  <circle cx="19" cy="13" r="1" fill="srgba(168,176,100,1)"/>
  <circle cx="20" cy="13" r="1" fill="srgba(185,210,141,1)"/>
  <circle cx="21" cy="13" r="1" fill="srgba(255,255,255,1)"/>
  <circle cx="0" cy="14" r="1" fill="srgba(253,247,246,1)"/>
  <circle cx="1" cy="14" r="1" fill="srgba(232,106,96,1)"/>
  <circle cx="2" cy="14" r="1" fill="srgba(220,33,24,1)"/>
  <circle cx="3" cy="14" r="1" fill="srgba(206,27,21,1)"/>
  <circle cx="4" cy="14" r="1" fill="srgba(203,24,19,1)"/>
  <circle cx="5" cy="14" r="1" fill="srgba(205,17,13,1)"/>
  <circle cx="6" cy="14" r="1" fill="srgba(213,20,17,1)"/>
  <circle cx="7" cy="14" r="1" fill="srgba(212,35,30,1)"/>
  <circle cx="8" cy="14" r="1" fill="srgba(197,10,7,1)"/>
  <circle cx="9" cy="14" r="1" fill="srgba(208,33,23,1)"/>
  <circle cx="10" cy="14" r="1" fill="srgba(191,15,11,1)"/>
  <circle cx="11" cy="14" r="1" fill="srgba(185,17,12,1)"/>
  <circle cx="12" cy="14" r="1" fill="srgba(180,14,11,1)"/>
  <circle cx="13" cy="14" r="1" fill="srgba(183,27,20,1)"/>
  <circle cx="14" cy="14" r="1" fill="srgba(186,18,15,1)"/>
  <circle cx="15" cy="14" r="1" fill="srgba(185,23,17,1)"/>
  <circle cx="16" cy="14" r="1" fill="srgba(187,32,24,1)"/>
  <circle cx="17" cy="14" r="1" fill="srgba(202,38,31,1)"/>
  <circle cx="18" cy="14" r="1" fill="srgba(244,156,155,1)"/>
  <circle cx="19" cy="14" r="1" fill="srgba(229,237,212,1)"/>
  <circle cx="20" cy="14" r="1" fill="srgba(226,235,208,1)"/>
  <circle cx="21" cy="14" r="1" fill="white"/>
  <circle cx="0" cy="15" r="1" fill="srgba(254,248,248,1)"/>
  <circle cx="1" cy="15" r="1" fill="srgba(230,110,102,1)"/>
  <circle cx="2" cy="15" r="1" fill="srgba(207,29,20,1)"/>
  <circle cx="3" cy="15" r="1" fill="srgba(192,28,21,1)"/>
  <circle cx="4" cy="15" r="1" fill="srgba(191,24,19,1)"/>
  <circle cx="5" cy="15" r="1" fill="srgba(190,17,14,1)"/>
  <circle cx="6" cy="15" r="1" fill="srgba(182,16,11,1)"/>
  <circle cx="7" cy="15" r="1" fill="srgba(188,29,21,1)"/>
  <circle cx="8" cy="15" r="1" fill="srgba(177,11,8,1)"/>
  <circle cx="9" cy="15" r="1" fill="srgba(180,12,10,1)"/>
  <circle cx="10" cy="15" r="1" fill="srgba(176,13,10,1)"/>
  <circle cx="11" cy="15" r="1" fill="srgba(184,25,18,1)"/>
  <circle cx="12" cy="15" r="1" fill="srgba(181,16,13,1)"/>
  <circle cx="13" cy="15" r="1" fill="srgba(184,20,17,1)"/>
  <circle cx="14" cy="15" r="1" fill="srgba(187,21,18,1)"/>
  <circle cx="15" cy="15" r="1" fill="srgba(192,31,26,1)"/>
  <circle cx="16" cy="15" r="1" fill="srgba(193,30,25,1)"/>
  <circle cx="17" cy="15" r="1" fill="srgba(201,73,71,1)"/>
  <circle cx="18" cy="15" r="1" fill="srgba(249,228,228,1)"/>
  <circle cx="19" cy="15" r="1" fill="srgba(254,255,254,1)"/>
  <circle cx="20" cy="15" r="1" fill="srgba(254,254,253,1)"/>
  <circle cx="21" cy="15" r="1" fill="white"/>
  <circle cx="0" cy="16" r="1" fill="white"/>
  <circle cx="1" cy="16" r="1" fill="srgba(239,172,167,1)"/>
  <circle cx="2" cy="16" r="1" fill="srgba(204,49,39,1)"/>
  <circle cx="3" cy="16" r="1" fill="srgba(184,32,23,1)"/>
  <circle cx="4" cy="16" r="1" fill="srgba(179,18,14,1)"/>
  <circle cx="5" cy="16" r="1" fill="srgba(178,23,16,1)"/>
  <circle cx="6" cy="16" r="1" fill="srgba(179,23,17,1)"/>
  <circle cx="7" cy="16" r="1" fill="srgba(178,13,12,1)"/>
  <circle cx="8" cy="16" r="1" fill="srgba(178,19,14,1)"/>
  <circle cx="9" cy="16" r="1" fill="srgba(174,11,8,1)"/>
  <circle cx="10" cy="16" r="1" fill="srgba(173,15,11,1)"/>
  <circle cx="11" cy="16" r="1" fill="srgba(180,18,16,1)"/>
  <circle cx="12" cy="16" r="1" fill="srgba(184,25,21,1)"/>
  <circle cx="13" cy="16" r="1" fill="srgba(187,29,25,1)"/>
  <circle cx="14" cy="16" r="1" fill="srgba(196,40,35,1)"/>
  <circle cx="15" cy="16" r="1" fill="srgba(196,35,31,1)"/>
  <circle cx="16" cy="16" r="1" fill="srgba(200,60,59,1)"/>
  <circle cx="17" cy="16" r="1" fill="srgba(234,188,188,1)"/>
  <circle cx="18" cy="16" r="1" fill="srgba(255,255,255,1)"/>
  <circle cx="19" cy="16" r="1" fill="white"/>
  <circle cx="20" cy="16" r="1" fill="white"/>
  <circle cx="21" cy="16" r="1" fill="white"/>
  <circle cx="0" cy="17" r="1" fill="white"/>
  <circle cx="1" cy="17" r="1" fill="srgba(254,247,246,1)"/>
  <circle cx="2" cy="17" r="1" fill="srgba(234,172,167,1)"/>
  <circle cx="3" cy="17" r="1" fill="srgba(199,80,73,1)"/>
  <circle cx="4" cy="17" r="1" fill="srgba(182,43,35,1)"/>
  <circle cx="5" cy="17" r="1" fill="srgba(185,32,25,1)"/>
  <circle cx="6" cy="17" r="1" fill="srgba(190,29,25,1)"/>
  <circle cx="7" cy="17" r="1" fill="srgba(192,34,28,1)"/>
  <circle cx="8" cy="17" r="1" fill="srgba(189,26,23,1)"/>
  <circle cx="9" cy="17" r="1" fill="srgba(187,26,22,1)"/>
  <circle cx="10" cy="17" r="1" fill="srgba(187,30,24,1)"/>
  <circle cx="11" cy="17" r="1" fill="srgba(189,29,26,1)"/>
  <circle cx="12" cy="17" r="1" fill="srgba(190,35,31,1)"/>
  <circle cx="13" cy="17" r="1" fill="srgba(195,38,35,1)"/>
  <circle cx="14" cy="17" r="1" fill="srgba(195,44,41,1)"/>
  <circle cx="15" cy="17" r="1" fill="srgba(208,95,94,1)"/>
  <circle cx="16" cy="17" r="1" fill="srgba(238,200,200,1)"/>
  <circle cx="17" cy="17" r="1" fill="srgba(255,254,254,1)"/>
  <circle cx="18" cy="17" r="1" fill="white"/>
  <circle cx="19" cy="17" r="1" fill="white"/>
  <circle cx="20" cy="17" r="1" fill="white"/>
  <circle cx="21" cy="17" r="1" fill="white"/>
  <circle cx="0" cy="18" r="1" fill="white"/>
  <circle cx="1" cy="18" r="1" fill="white"/>
  <circle cx="2" cy="18" r="1" fill="srgba(255,253,253,1)"/>
  <circle cx="3" cy="18" r="1" fill="srgba(248,233,232,1)"/>
  <circle cx="4" cy="18" r="1" fill="srgba(235,194,191,1)"/>
  <circle cx="5" cy="18" r="1" fill="srgba(228,158,157,1)"/>
  <circle cx="6" cy="18" r="1" fill="srgba(229,149,147,1)"/>
  <circle cx="7" cy="18" r="1" fill="srgba(228,151,149,1)"/>
  <circle cx="8" cy="18" r="1" fill="srgba(228,146,144,1)"/>
  <circle cx="9" cy="18" r="1" fill="srgba(220,129,126,1)"/>
  <circle cx="10" cy="18" r="1" fill="srgba(219,119,117,1)"/>
  <circle cx="11" cy="18" r="1" fill="srgba(219,119,117,1)"/>
  <circle cx="12" cy="18" r="1" fill="srgba(220,126,125,1)"/>
  <circle cx="13" cy="18" r="1" fill="srgba(224,149,148,1)"/>
  <circle cx="14" cy="18" r="1" fill="srgba(236,190,189,1)"/>
  <circle cx="15" cy="18" r="1" fill="srgba(250,238,238,1)"/>
  <circle cx="16" cy="18" r="1" fill="white"/>
  <circle cx="17" cy="18" r="1" fill="white"/>
  <circle cx="18" cy="18" r="1" fill="white"/>
  <circle cx="19" cy="18" r="1" fill="white"/>
  <circle cx="20" cy="18" r="1" fill="white"/>
  <circle cx="21" cy="18" r="1" fill="white"/>
  <circle cx="0" cy="19" r="1" fill="white"/>
  <circle cx="1" cy="19" r="1" fill="white"/>
  <circle cx="2" cy="19" r="1" fill="white"/>
  <circle cx="3" cy="19" r="1" fill="white"/>
  <circle cx="4" cy="19" r="1" fill="white"/>
  <circle cx="5" cy="19" r="1" fill="white"/>
  <circle cx="6" cy="19" r="1" fill="white"/>
  <circle cx="7" cy="19" r="1" fill="white"/>
  <circle cx="8" cy="19" r="1" fill="white"/>
  <circle cx="9" cy="19" r="1" fill="srgba(255,255,255,1)"/>
  <circle cx="10" cy="19" r="1" fill="srgba(254,252,252,1)"/>
  <circle cx="11" cy="19" r="1" fill="srgba(254,251,251,1)"/>
  <circle cx="12" cy="19" r="1" fill="srgba(255,254,254,1)"/>
  <circle cx="13" cy="19" r="1" fill="white"/>
  <circle cx="14" cy="19" r="1" fill="white"/>
  <circle cx="15" cy="19" r="1" fill="white"/>
  <circle cx="16" cy="19" r="1" fill="white"/>
  <circle cx="17" cy="19" r="1" fill="white"/>
  <circle cx="18" cy="19" r="1" fill="white"/>
  <circle cx="19" cy="19" r="1" fill="white"/>
  <circle cx="20" cy="19" r="1" fill="white"/>
  <circle cx="21" cy="19" r="1" fill="white"/>
  <circle cx="0" cy="20" r="1" fill="white"/>
  <circle cx="1" cy="20" r="1" fill="white"/>
  <circle cx="2" cy="20" r="1" fill="white"/>
  <circle cx="3" cy="20" r="1" fill="white"/>
  <circle cx="4" cy="20" r="1" fill="white"/>
  <circle cx="5" cy="20" r="1" fill="white"/>
  <circle cx="6" cy="20" r="1" fill="white"/>
  <circle cx="7" cy="20" r="1" fill="white"/>
  <circle cx="8" cy="20" r="1" fill="white"/>
  <circle cx="9" cy="20" r="1" fill="white"/>
  <circle cx="10" cy="20" r="1" fill="white"/>
  <circle cx="11" cy="20" r="1" fill="white"/>
  <circle cx="12" cy="20" r="1" fill="white"/>
  <circle cx="13" cy="20" r="1" fill="white"/>
  <circle cx="14" cy="20" r="1" fill="white"/>
  <circle cx="15" cy="20" r="1" fill="white"/>
  <circle cx="16" cy="20" r="1" fill="white"/>
  <circle cx="17" cy="20" r="1" fill="white"/>
  <circle cx="18" cy="20" r="1" fill="white"/>
  <circle cx="19" cy="20" r="1" fill="white"/>
  <circle cx="20" cy="20" r="1" fill="white"/>
  <circle cx="21" cy="20" r="1" fill="white"/>
  <circle cx="0" cy="21" r="1" fill="white"/>
  <circle cx="1" cy="21" r="1" fill="white"/>
  <circle cx="2" cy="21" r="1" fill="white"/>
  <circle cx="3" cy="21" r="1" fill="white"/>
  <circle cx="4" cy="21" r="1" fill="white"/>
  <circle cx="5" cy="21" r="1" fill="white"/>
  <circle cx="6" cy="21" r="1" fill="white"/>
  <circle cx="7" cy="21" r="1" fill="white"/>
  <circle cx="8" cy="21" r="1" fill="white"/>
  <circle cx="9" cy="21" r="1" fill="white"/>
  <circle cx="10" cy="21" r="1" fill="white"/>
  <circle cx="11" cy="21" r="1" fill="white"/>
  <circle cx="12" cy="21" r="1" fill="white"/>
  <circle cx="13" cy="21" r="1" fill="white"/>
  <circle cx="14" cy="21" r="1" fill="white"/>
  <circle cx="15" cy="21" r="1" fill="white"/>
  <circle cx="16" cy="21" r="1" fill="white"/>
  <circle cx="17" cy="21" r="1" fill="white"/>
  <circle cx="18" cy="21" r="1" fill="white"/>
  <circle cx="19" cy="21" r="1" fill="white"/>
  <circle cx="20" cy="21" r="1" fill="white"/>
  <circle cx="21" cy="21" r="1" fill="white"/>
</svg>
